HIERARCHY
ROOT Hips
{
	OFFSET 0.00000 0.00000 0.00000
	CHANNELS 6 Xposition Yposition Zposition Yrotation Zrotation Xrotation 
	JOINT Lumbar
	{
		OFFSET 0 0 0
		CHANNELS 3 Zrotation Xrotation Yrotation
		JOINT Neck
		{
			OFFSET 0.00 0.2701 0.00
			CHANNELS 3 Zrotation Xrotation Yrotation
			End Site
			{
				OFFSET 0.00 0.1379 0.00
			}
		}
		JOINT RightShoulder
		{
			OFFSET 0.0119 0.2289 0.1181
			CHANNELS 3 Zrotation Xrotation Yrotation
			JOINT RightElbow
			{
				OFFSET 0.00 -0.1475 0.00
				CHANNELS 2 Zrotation Yrotation
				JOINT RightWrist
				{
					OFFSET 0.00 -0.1605 0.00
					CHANNELS 2 Zrotation Xrotation
					End Site
					{
						OFFSET 0.0040 -0.1068 0.0006
					}
				}
			}
		}
		JOINT LeftShoulder
		{
			OFFSET 0.0119 0.2289 -0.1181
			CHANNELS 3 Zrotation Xrotation Yrotation
			JOINT LeftElbow
			{
				OFFSET 0.00 -0.1475 0.00
				CHANNELS 2 Zrotation Yrotation
				JOINT LeftWrist
				{
					OFFSET 0.00 -0.1605 0.00
					CHANNELS 2 Zrotation Xrotation
					End Site
					{
						OFFSET 0.0040 -0.1068 -0.0006
					}
				}
			}
		}
	}
	JOINT RightHip
	{
		OFFSET 0.0316 -0.0424 0.0458
		CHANNELS 3 Zrotation Xrotation Yrotation
		JOINT RightKnee
		{
			OFFSET 0.00 -0.2438 0.00
			CHANNELS 1 Zrotation
			JOINT RightAnkle
			{
				OFFSET 0.00 -0.2449 0.00
				CHANNELS 3 Zrotation Xrotation Yrotation
				End Site
				{
					OFFSET 0.1237 -0.0542 0.0051
				}
			}
		}
	}
	JOINT LeftHip
	{
		OFFSET 0.0316 -0.0424 -0.0458
		CHANNELS 3 Zrotation Xrotation Yrotation
		JOINT LeftKnee
		{
			OFFSET 0.00 -0.2438 0.00
			CHANNELS 1 Zrotation
			JOINT LeftAnkle
			{
				OFFSET 0.00 -0.2449 0.00
				CHANNELS 3 Zrotation Xrotation Yrotation
				End Site
				{
					OFFSET 0.1237 -0.0542 -0.0051
				}
			}
		}
	}
}
MOTION
Frames: 16
Frame Time: 0.02
-0.06704 -0.03373 -0.04576 26.61151 -14.87288 6.25781 41.57215 -1.23563 -5.39021 -14.68578 -17.59709 -0.83078 -59.45621 -51.68635 7.39111 88.99804 89.65603 11.31847 -1.6388 -44.68548 55.32421 -10.4074 95.36855 -85.2399 13.46068 2.80123 43.86031 1.89607 -21.57345 -54.35003 -7.95129 -3.5024 -2.54041 32.55664 -10.68522 28.42426 -29.4114 7.56927 -3.87322 -1.99433
-0.06741 -0.03341 -0.0446 26.41697 -14.69846 6.17358 41.29427 -1.22641 -4.91947 -15.76254 -17.22766 -0.83078 -60.1546 -49.27581 7.48503 89.53107 89.9236 11.59681 -1.45419 -48.81432 52.28116 -7.40092 97.39718 -86.52691 13.33818 2.46704 44.68389 2.02696 -21.1566 -55.52094 -8.28201 -3.5313 -2.57295 32.44812 -10.59844 28.13372 -29.32834 5.52825 -3.07249 -1.48413
-0.06793 -0.03301 -0.04336 26.29674 -14.47091 6.04744 40.91332 -1.21776 -4.44857 -16.76619 -16.89641 -0.83078 -60.79354 -47.53373 8.62951 90.66956 89.89094 10.57649 -1.37298 -51.64104 48.90228 -5.29789 99.16723 -87.9588 12.64068 2.06634 45.68029 2.16961 -20.64379 -56.90699 -8.67453 -3.57525 -2.61625 32.28036 -10.494 27.78562 -29.21877 2.19283 -1.82012 -0.68012
-0.0684 -0.03265 -0.04216 26.14893 -14.26933 5.93239 40.5774 -1.20543 -3.99035 -17.79269 -16.55352 -0.83078 -61.45571 -45.51405 9.28215 91.50513 89.9526 10.11688 -1.24144 -55.01206 45.70157 -2.80753 101.02995 -89.29125 12.21587 1.67254 46.59115 2.30581 -20.20069 -58.15555 -9.02374 -3.61363 -2.65468 32.13932 -10.39088 27.46062 -29.11875 -0.35774 -0.84239 -0.05314
-0.06883 -0.0323 -0.04094 25.97767 -14.05822 5.85025 40.24752 -1.20766 -3.47809 -18.86653 -16.18601 -0.83078 -62.15361 -43.34674 9.96578 92.474 90.25411 9.79989 -1.13355 -58.60228 42.34965 -0.17508 102.99636 -90.75862 11.74171 1.37092 47.53505 2.44626 -19.64916 -59.58679 -9.43723 -3.64713 -2.69334 31.99648 -10.31549 27.15085 -29.02826 -3.67048 0.39871 0.74032
-0.06936 -0.03189 -0.03974 25.87187 -13.85574 5.68939 39.88124 -1.17947 -3.07832 -19.8218 -15.87898 -0.83078 -62.75467 -41.65525 10.84047 93.30218 89.97302 8.88155 -0.99863 -61.41755 39.25411 1.92845 104.68325 -91.99273 11.24283 0.87134 48.4491 2.58106 -19.29924 -60.67334 -9.73246 -3.69398 -2.73389 31.84559 -10.17851 26.79173 -28.91242 -5.75048 1.21684 1.26767
-0.07008 -0.03133 -0.03859 25.92869 -13.682 5.32709 39.43905 -1.06937 -2.99367 -20.4823 -15.73058 -0.83079 -63.11039 -41.1739 12.05327 93.60167 88.00479 6.48093 -0.74745 -62.43309 36.90309 2.80046 105.69225 -92.40009 10.69337 -0.25075 49.24717 2.69412 -19.53773 -60.87131 -9.67388 -3.77654 -2.7778 31.67192 -9.8732 26.3501 -28.72833 -3.84123 0.66839 0.93455
-0.0709 -0.0307 -0.03745 26.04844 -13.52064 4.88602 38.96414 -0.92824 -3.0217 -21.02263 -15.64168 -0.83079 -63.36588 -41.14423 13.41522 93.73481 85.47696 3.54053 -0.46729 -62.70673 34.84262 3.1569 106.42307 -92.58394 10.14846 -1.55323 50.00701 2.80168 -19.97971 -60.69191 -9.49613 -3.87146 -2.82304 31.49542 -9.50653 25.85496 -28.5209 -0.69945 -0.3031 0.3345
-0.07168 -0.0301 -0.0363 26.13892 -13.35883 4.47766 38.50479 -0.79987 -2.99523 -21.60841 -15.52497 -0.83079 -63.66051 -40.87333 14.66893 93.93701 83.29553 0.93569 -0.20906 -63.30421 32.67559 3.74693 107.26256 -92.97917 9.69643 -2.71257 50.77849 2.9139 -20.32435 -60.60981 -9.38086 -3.95912 -2.86718 31.32998 -9.17035 25.3567 -28.32693 1.69122 -1.01835 -0.10533
-0.07243 -0.02951 -0.03516 26.23476 -13.17249 4.08138 38.03876 -0.67721 -2.98209 -22.23167 -15.4127 -0.83079 -63.98341 -40.7726 16.12692 94.18912 80.72107 -2.09053 0.08377 -63.91505 30.35979 4.33771 108.1706 -92.95899 8.87369 -4.13096 51.58108 3.01747 -20.69052 -60.85205 -9.23311 -4.05448 -2.91392 31.12026 -8.82465 24.96654 -28.1187 4.82917 -1.98297 -0.69622
-0.07326 -0.02888 -0.03401 26.33353 -13.04189 3.64111 37.58039 -0.53527 -2.96861 -22.74762 -15.305 -0.83079 -64.22062 -40.42141 17.18446 94.28869 78.82992 -4.35597 0.31101 -64.33596 28.46342 4.78038 108.8698 -93.69514 8.76882 -5.05358 52.30652 3.13751 -21.05601 -60.32193 -9.12329 -4.13627 -2.95523 31.00403 -8.48181 24.34645 -27.93656 6.73841 -2.54123 -1.04366
-0.07426 -0.02816 -0.03285 26.42334 -13.05402 3.10483 37.15084 -0.34785 -2.9212 -23.01086 -15.19365 -0.83079 -64.27695 -39.22347 17.06979 94.01426 79.01321 -4.33708 0.36626 -64.44357 27.33556 5.25919 109.08938 -97.0497 11.20276 -4.54738 52.83657 3.30418 -21.41533 -57.79063 -9.15221 -4.1798 -2.98272 31.13709 -8.18502 23.04192 -27.8183 4.79846 -1.81646 -0.61974
-0.07532 -0.02741 -0.0317 26.51375 -13.12376 2.52617 36.73104 -0.14222 -2.87055 -23.16801 -15.08499 -0.83079 -64.2449 -37.76429 16.54809 93.58817 79.89533 -3.5379 0.35208 -64.38707 26.67133 5.55933 109.10366 -101.09347 14.26958 -3.53905 53.28841 3.48685 -21.75809 -54.48954 -9.22218 -4.20877 -3.00435 31.36646 -7.88932 21.519 -27.72947 1.61408 -0.68074 0.05081
-0.07635 -0.02668 -0.03054 26.6047 -13.17251 1.96292 36.30715 0.05539 -2.82501 -23.3647 -14.97604 -0.83079 -64.23313 -36.44906 16.22625 93.22357 80.42548 -3.12221 0.35951 -64.39218 26.01792 5.72666 109.19506 -104.49686 16.66881 -2.77003 53.76901 3.66321 -22.08011 -51.51035 -9.26989 -4.24284 -3.02761 31.55824 -7.57763 20.13847 -27.63685 -0.89188 0.22659 0.5846
-0.0774 -0.02593 -0.02937 26.69485 -13.19909 1.41269 35.87936 0.25362 -2.76822 -23.59353 -14.86524 -0.83079 -64.30189 -35.03812 15.84448 92.88317 81.08093 -2.60088 0.40959 -64.4234 24.47916 6.74715 109.34753 -109.23351 20.62339 -1.95867 54.27476 3.83838 -22.53189 -48.62416 -9.32876 -4.28369 -3.05527 31.72361 -7.32789 18.5773 -27.50439 -3.82969 1.29395 1.21273
-0.07843 -0.02522 -0.02824 26.78548 -13.28618 0.82687 35.464 0.45368 -2.73239 -23.7321 -14.75817 -0.83079 -64.18309 -33.76528 15.49254 92.46066 81.64892 -2.11131 0.35434 -64.37352 24.84068 5.99491 109.32439 -111.41024 21.5497 -1.11609 54.71285 4.01606 -22.70261 -45.3813 -9.37557 -4.30688 -3.07237 31.96713 -6.95183 17.33697 -27.46041 -6.18263 2.1326 1.70728
